<svg width="287" height="283" viewBox="0 0 287 283" fill="none" xmlns="http://www.w3.org/2000/svg">
<path d="M201.502 122.151C201.227 121.37 200.731 120.696 200.077 120.219C199.425 119.743 198.649 119.488 197.853 119.488H197.843C128.011 119.285 124.57 119.111 88.9435 119.488C87.9119 119.488 86.9225 119.917 86.1931 120.68C85.4637 121.443 85.0539 122.478 85.0539 123.558V253.78C85.0539 254.859 85.4637 255.895 86.1931 256.658C86.9225 257.421 87.9119 257.851 88.9435 257.851H182.295C188.481 257.842 194.413 255.268 198.789 250.69C203.164 246.113 205.625 239.907 205.632 233.433V204.947H225.081C225.706 204.947 226.324 204.789 226.88 204.485C227.436 204.183 227.912 203.743 228.27 203.204C228.629 202.667 228.857 202.048 228.939 201.396C229.018 200.746 228.947 200.086 228.73 199.47L201.502 122.151ZM92.8332 170.852C61.9912 114.042 31.1493 57.2321 92.8332 170.852ZM136.608 136.93C105.766 89.1029 74.9244 41.2754 136.608 136.93ZM92.8332 127.627C61.9912 85.2255 31.1493 42.8239 92.8332 127.627ZM201.742 196.808C200.711 196.808 199.721 197.237 198.991 197.999C198.263 198.762 197.853 199.798 197.853 200.878V212.947C194.595 212.591 191.454 211.487 188.652 209.712C185.85 207.94 183.455 205.542 181.641 202.69L175.168 207.205C177.692 211.173 181.047 214.489 184.976 216.9C188.907 219.312 193.309 220.756 197.853 221.123V233.433C197.848 237.749 196.207 241.887 193.291 244.938C190.373 247.99 186.419 249.705 182.295 249.71H92.8332V127.627C104.81 127.541 148.767 127.627 195.14 127.627L219.5 196.808H201.742Z" fill="white"/>
<path d="M139.953 51.4653H147.774V63.7396H139.953V51.4653Z" fill="white"/>
<path d="M139.953 35.0996H147.774V43.2824H139.953V35.0996Z" fill="white"/>
<path d="M16.142 142.787H27.8737V150.97H16.142V142.787Z" fill="white"/>
<path d="M35.6949 142.787H66.9798V150.97H35.6949V142.787Z" fill="white"/>
<path d="M3.32812 109.397L4.9402 101.395L13.1777 103.211L11.5656 111.214L3.32812 109.397Z" fill="white"/>
<path d="M19.8062 113.059L21.4183 105.057L66.726 115.048L65.1139 123.05L19.8062 113.059Z" fill="white"/>
<path d="M80.6682 32.59L87.6603 28.9323L91.5691 37.1114L84.577 40.7692L80.6682 32.59Z" fill="white"/>
<path d="M88.481 48.9518L95.473 45.2941L107.199 69.8311L100.207 73.4888L88.481 48.9518Z" fill="white"/>
<path d="M39.6191 64.9341L44.1881 58.288L82.651 87.2312L78.0821 93.8774L39.6191 64.9341Z" fill="white"/>
<path d="M25.1897 54.0938L29.7586 47.4477L38.2203 53.8151L33.6514 60.4612L25.1897 54.0938Z" fill="white"/>
<path d="M261.933 142.787H273.664V150.97H261.933V142.787Z" fill="white"/>
<path d="M222.826 142.787H254.112V150.97H222.826V142.787Z" fill="white"/>
<path d="M270.502 92.9649L278.318 89.6953L281.22 97.2889L273.403 100.559L270.502 92.9649Z" fill="white"/>
<path d="M219.685 114.213L262.68 96.2299L265.582 103.824L222.587 121.807L219.685 114.213Z" fill="white"/>
<path d="M193.997 32.8158L197.906 24.6366L204.898 28.2943L200.989 36.4735L193.997 32.8158Z" fill="white"/>
<path d="M178.351 65.5333L190.077 40.9963L197.069 44.6541L185.343 69.1911L178.351 65.5333Z" fill="white"/>
<path d="M206.867 90.0377L235.573 63.6029L240.743 69.7483L212.037 96.183L206.867 90.0377Z" fill="white"/>
<path d="M241.69 58.7391L249.514 51.5342L254.684 57.6794L246.86 64.8845L241.69 58.7391Z" fill="white"/>
<path d="M171.237 170.852C171.237 173.563 170.207 176.165 168.374 178.083C166.541 180.002 164.054 181.079 161.461 181.079C158.868 181.079 156.381 180.002 154.548 178.083C152.714 176.165 151.684 173.563 151.684 170.852V164.714H143.863V170.852C143.863 175.735 145.717 180.417 149.017 183.87C152.318 187.324 156.794 189.264 161.461 189.264C166.128 189.264 170.604 187.324 173.904 183.87C177.204 180.417 179.059 175.735 179.059 170.852V164.714H171.237V170.852Z" fill="white"/>
</svg>
