<svg width="295" height="295" viewBox="0 0 295 295" fill="none" xmlns="http://www.w3.org/2000/svg">
<rect width="294.085" height="294.085" rx="70.362" fill="#CCFCE6"/>
<rect width="294.085" height="294.085" rx="70.362" fill="url(#paint0_linear_1093_13374)"/>
<path d="M196.497 131.837C196.269 131.219 195.857 130.685 195.317 130.308C194.776 129.931 194.133 129.729 193.474 129.729H193.465C194.801 127.952 195.754 125.918 196.265 123.754C196.776 121.59 196.833 119.344 196.433 117.157C196.032 114.971 195.183 112.89 193.939 111.048C192.695 109.205 191.083 107.641 189.204 106.452C190.383 103.35 190.575 99.9601 189.755 96.7449C188.934 93.5297 187.141 90.6463 184.619 88.4888C182.098 86.3312 178.972 85.0048 175.669 84.6908C172.366 84.3768 169.046 85.0905 166.163 86.7344C164.68 83.2405 162.202 80.2603 159.036 78.1653C155.871 76.0703 152.159 74.9532 148.364 74.9532C144.568 74.9532 140.856 76.0703 137.691 78.1653C134.526 80.2603 132.047 83.2405 130.564 86.7344C127.681 85.0936 124.362 84.3823 121.06 84.6976C117.759 85.0129 114.634 86.3394 112.114 88.4961C109.594 90.6528 107.801 93.5346 106.979 96.7482C106.158 99.9618 106.348 103.351 107.524 106.452C104.733 108.222 102.553 110.807 101.279 113.857C100.005 116.906 99.6989 120.274 100.401 123.503L106.698 122.134C106.196 119.828 106.554 117.418 107.704 115.357C108.854 113.296 110.718 111.726 112.944 110.942C113.408 110.779 113.829 110.513 114.174 110.162C114.52 109.811 114.78 109.386 114.936 108.92C115.091 108.453 115.138 107.957 115.072 107.469C115.006 106.981 114.829 106.515 114.555 106.107C113.242 104.149 112.69 101.779 113.004 99.4425C113.317 97.1063 114.473 94.9652 116.255 93.4221C118.037 91.879 120.321 91.0405 122.678 91.0645C125.035 91.0884 127.302 91.9731 129.052 93.552C129.043 93.7969 129.033 94.0418 129.033 94.287C129.029 96.9485 129.577 99.5819 130.644 102.02L136.55 99.44C135.838 97.815 135.473 96.0598 135.476 94.2858C135.477 93.7699 135.509 93.2546 135.571 92.7424L135.573 92.7324C135.951 89.6062 137.462 86.7268 139.818 84.6383C142.175 82.5497 145.215 81.3965 148.364 81.3965C151.513 81.3965 154.553 82.5497 156.91 84.6383C159.267 86.7268 160.777 89.6062 161.155 92.7324C161.23 93.3535 161.484 93.9394 161.886 94.4188C162.288 94.8981 162.82 95.2501 163.419 95.4317C164.018 95.6133 164.656 95.6168 165.257 95.4416C165.857 95.2665 166.394 94.9203 166.801 94.4453C168.406 92.5806 170.662 91.3981 173.108 91.1387C175.555 90.8794 178.008 91.5626 179.968 93.0493C181.929 94.536 183.248 96.7143 183.658 99.1401C184.068 101.566 183.538 104.057 182.175 106.105C181.901 106.514 181.724 106.98 181.658 107.468C181.592 107.955 181.639 108.452 181.794 108.918C181.95 109.385 182.21 109.81 182.556 110.161C182.901 110.511 183.322 110.778 183.786 110.941C185.94 111.696 187.758 113.189 188.916 115.156C190.075 117.123 190.5 119.436 190.117 121.686C189.733 123.937 188.566 125.978 186.822 127.45C185.077 128.923 182.868 129.73 180.585 129.729H149.259C148.729 128.903 148.424 127.952 148.374 126.971C148.324 125.991 148.531 125.014 148.975 124.138C149.418 123.262 150.083 122.517 150.903 121.977C151.723 121.437 152.669 121.12 153.649 121.058L153.246 114.626C151.468 114.737 149.736 115.241 148.174 116.1C146.613 116.96 145.262 118.155 144.217 119.598C143.172 121.042 142.46 122.699 142.131 124.451C141.802 126.202 141.865 128.005 142.315 129.729H103.254C102.4 129.729 101.58 130.069 100.976 130.673C100.372 131.277 100.032 132.097 100.032 132.951V236.059C100.032 236.913 100.372 237.733 100.976 238.337C101.58 238.941 102.4 239.281 103.254 239.281H180.585C185.711 239.275 190.625 237.236 194.249 233.612C197.873 229.988 199.912 225.074 199.918 219.948V197.393H216.028C216.547 197.393 217.059 197.268 217.519 197.028C217.979 196.788 218.375 196.44 218.672 196.014C218.968 195.588 219.158 195.097 219.224 194.582C219.291 194.068 219.231 193.544 219.052 193.057L196.497 131.837ZM106.477 161.95H119.848C116.003 165.635 111.456 168.508 106.477 170.398V161.95ZM125.303 155.506H106.477V149.062H128.881C127.888 151.315 126.69 153.472 125.303 155.506ZM132.127 136.173C131.954 138.346 131.604 140.502 131.08 142.618H106.477V136.173H132.127ZM196.696 190.949C195.841 190.949 195.022 191.289 194.417 191.893C193.813 192.497 193.474 193.317 193.474 194.171V203.728C190.775 203.445 188.173 202.571 185.851 201.167C183.53 199.763 181.547 197.864 180.044 195.606L174.682 199.181C176.773 202.323 179.551 204.949 182.807 206.858C186.063 208.767 189.71 209.911 193.474 210.201V219.948C193.47 223.365 192.111 226.641 189.694 229.058C187.278 231.474 184.002 232.833 180.585 232.837H106.477V177.215C115.315 174.363 123.097 168.93 128.819 161.615C134.541 154.3 137.941 145.438 138.581 136.173H191.227L211.405 190.949H196.696Z" fill="#005855"/>
<rect x="93.7922" y="71.3534" width="108" height="58.2857" fill="#CCFCE6"/>
<path d="M145.142 75.9855H151.586V85.6519H145.142V75.9855Z" fill="#6C63FF"/>
<path d="M145.142 63.0971H151.586V69.5413H145.142V63.0971Z" fill="#6C63FF"/>
<path d="M43.1293 147.904H52.7956V154.349H43.1293V147.904Z" fill="#FF8139"/>
<path d="M59.2399 147.904H85.0168V154.349H59.2399V147.904Z" fill="#FF8139"/>
<path d="M32.5713 121.608L33.8995 115.306L40.6868 116.737L39.3585 123.039L32.5713 121.608Z" fill="#005855"/>
<path d="M46.1482 124.492L47.4765 118.19L84.8074 126.059L83.4792 132.36L46.1482 124.492Z" fill="#005855"/>
<path d="M96.2949 61.1207L102.056 58.2402L105.277 64.6815L99.5156 67.562L96.2949 61.1207Z" fill="#F44E4E" fill-opacity="0.7"/>
<path d="M102.732 74.0062L108.494 71.1256L118.155 90.4492L112.394 93.3297L102.732 74.0062Z" fill="#F44E4E" fill-opacity="0.7"/>
<path d="M62.473 86.5927L66.2375 81.3586L97.9288 104.152L94.1643 109.386L62.473 86.5927Z" fill="#FFE481"/>
<path d="M50.584 78.0555L54.3485 72.8215L61.3205 77.8361L57.556 83.0701L50.584 78.0555Z" fill="#FFE481"/>
<path d="M245.647 147.904H255.313V154.349H245.647V147.904Z" fill="#FFE481"/>
<path d="M213.426 147.904H239.203V154.349H213.426V147.904Z" fill="#FFE481"/>
<path d="M252.707 108.668L259.148 106.093L261.539 112.073L255.098 114.648L252.707 108.668Z" fill="#005855"/>
<path d="M210.837 125.401L246.262 111.239L248.653 117.219L213.228 131.382L210.837 125.401Z" fill="#005855"/>
<path d="M189.672 61.2985L192.893 54.8571L198.654 57.7377L195.433 64.179L189.672 61.2985Z" fill="#F44E4E" fill-opacity="0.7"/>
<path d="M176.779 87.0646L186.441 67.741L192.202 70.6216L182.54 89.9451L176.779 87.0646Z" fill="#F44E4E" fill-opacity="0.7"/>
<path d="M200.275 106.362L223.928 85.5443L228.187 90.3839L204.535 111.202L200.275 106.362Z" fill="#FF8139"/>
<path d="M228.968 81.7139L235.414 76.0398L239.674 80.8794L233.227 86.5535L228.968 81.7139Z" fill="#FF8139"/>
<path d="M170.919 170.006C170.919 172.142 170.07 174.191 168.559 175.701C167.049 177.212 165 178.061 162.864 178.061C160.727 178.061 158.678 177.212 157.168 175.701C155.657 174.191 154.808 172.142 154.808 170.006V165.172H148.364V170.006C148.364 173.851 149.892 177.539 152.611 180.258C155.33 182.977 159.018 184.505 162.864 184.505C166.709 184.505 170.397 182.977 173.116 180.258C175.835 177.539 177.363 173.851 177.363 170.006V165.172H170.919V170.006Z" fill="#005855"/>
<rect x="106.478" y="136.153" width="34.2857" height="42.8571" fill="#CCFCE6"/>
<defs>
<linearGradient id="paint0_linear_1093_13374" x1="294.085" y1="294.085" x2="0" y2="0" gradientUnits="userSpaceOnUse">
<stop stop-color="#BDD0FC" stop-opacity="0.15"/>
<stop offset="1" stop-color="#90A4EC" stop-opacity="0.01"/>
</linearGradient>
</defs>
</svg>
